<?xml version="1.0" encoding="UTF-8"?>
<svg version="1.1" xmlns="http://www.w3.org/2000/svg" width="451" height="418">
<path d="M0 0 C148.83 0 297.66 0 451 0 C451 137.94 451 275.88 451 418 C302.17 418 153.34 418 0 418 C0 280.06 0 142.12 0 0 Z " fill="#FEFEFE" transform="translate(0,0)"/>
<path d="M0 0 C-3.30732147 0 -4.18157405 -0.50406323 -6.921875 -2.1953125 C-7.69241211 -2.66114746 -8.46294922 -3.12698242 -9.25683594 -3.60693359 C-10.49095215 -4.35837646 -10.49095215 -4.35837646 -11.75 -5.125 C-19.95776705 -9.99340859 -27.97943703 -13.82374543 -37 -17 C-38.22074219 -17.44988281 -39.44148437 -17.89976563 -40.69921875 -18.36328125 C-53.45340189 -22.88122073 -66.46807568 -25.43402598 -80 -26 C-81.15113281 -26.05285156 -82.30226562 -26.10570312 -83.48828125 -26.16015625 C-115.9617497 -26.92306715 -147.87574022 -17.38960803 -174 2 C-174.886875 2.65613281 -175.77375 3.31226563 -176.6875 3.98828125 C-179.19079765 5.92592991 -181.60252277 7.93282536 -184 10 C-184.50241211 10.43006348 -185.00482422 10.86012695 -185.52246094 11.30322266 C-212.58452541 34.66761766 -230.8544765 69.73608905 -233.6394043 105.46533203 C-235.33638334 132.94849955 -231.77157068 157.9309143 -220 183 C-219.4946875 184.11890625 -218.989375 185.2378125 -218.46875 186.390625 C-214.79908975 194.17845953 -210.08452841 201.09205451 -205 208 C-204.39671875 208.83015625 -203.7934375 209.6603125 -203.171875 210.515625 C-184.11256264 235.5413308 -157.50589314 252.44056028 -127.5 261.25 C-126.67024658 261.49645264 -125.84049316 261.74290527 -124.9855957 261.99682617 C-115.14359201 264.75877366 -105.24801104 266.12123283 -95.02734375 266.16796875 C-94.3623587 266.1722287 -93.69737366 266.17648865 -93.01223755 266.18087769 C-90.291819 266.19243748 -87.57295311 266.1975464 -84.8527832 266.15454102 C-73.32310237 266.0014262 -73.32310237 266.0014262 -69.95751953 268.54150391 C-68.21113081 270.90700551 -67 273.00295396 -67 276 C-109.42846082 286.57187562 -153.33574464 280.31436089 -191 258 C-200.80763344 252.0341611 -209.5360571 244.71036969 -218 237 C-218.55719727 236.49484863 -219.11439453 235.98969727 -219.68847656 235.46923828 C-233.00528499 223.23544686 -242.66635045 208.59684272 -251.09960938 192.69091797 C-251.86494762 191.25362603 -252.65632991 189.83025073 -253.453125 188.41015625 C-270.81556874 156.26765756 -273.26302788 113.65281177 -263 79 C-262.78649902 78.2383252 -262.57299805 77.47665039 -262.35302734 76.69189453 C-253.91404196 46.60939369 -236.67957639 17.6404989 -212 -2 C-211.45633789 -2.43425293 -210.91267578 -2.86850586 -210.35253906 -3.31591797 C-200.75505256 -10.91922054 -190.9049092 -17.43055161 -180 -23 C-179.36707031 -23.32339355 -178.73414063 -23.64678711 -178.08203125 -23.97998047 C-164.03691263 -31.04959817 -149.56239621 -35.70575358 -134 -38 C-132.94256592 -38.15662109 -132.94256592 -38.15662109 -131.86376953 -38.31640625 C-83.35530207 -45.20724721 -37.31686958 -31.73403082 0 0 Z " fill="#8DC344" transform="translate(337,78)"/>
<path d="M0 0 C2.53078906 2.53078906 3.73724298 5.43559704 5.25 8.625 C9.77295758 17.9016783 15.19615744 25.73564892 23.8125 31.6875 C24.864375 32.450625 25.91625 33.21375 27 34 C27 34.66 27 35.32 27 36 C27.6909375 36.24105469 28.381875 36.48210937 29.09375 36.73046875 C32.51288827 38.22404393 35.44679771 40.19906415 38.5 42.3125 C44.78204493 46.59249593 51.19760716 50.60609474 57.6875 54.5625 C68.73818781 61.34046561 80.0136662 68.5371182 89 78 C89 78.66 89 79.32 89 80 C89.66 80 90.32 80 91 80 C92.56828202 82.07388645 93.98498605 84.12266298 95.375 86.3125 C95.77912109 86.94534912 96.18324219 87.57819824 96.59960938 88.23022461 C100.88896883 95.14134206 103.40594736 102.02973679 105 110 C105.33 105.71 105.66 101.42 106 97 C116.33102826 110.77470434 118.88132918 130.61844707 119.39453125 147.4296875 C119.46020786 149.28389184 119.52698108 151.13805759 119.59472656 152.9921875 C119.62957153 153.95350586 119.6644165 154.91482422 119.70031738 155.90527344 C120.74862225 183.65626449 121.99934444 213.13094345 136.6796875 237.56640625 C138 240 138 240 138 243 C136.62437146 241.71034824 135.29233607 240.37310707 134 239 C134 238.34 134 237.68 134 237 C133.34 237 132.68 237 132 237 C121.74953671 219.41476076 117.29426425 201.86306304 113.17895508 182.03222656 C105.98159951 147.77347413 87.71907077 128.97434595 60.37988281 108.76757812 C41.80433716 94.97121472 24.42757921 80.71923312 15 59 C17.9425387 71.22285306 21.82140929 82.04174478 28 93 C28.54398438 93.98484375 29.08796875 94.9696875 29.6484375 95.984375 C34.36440129 103.94400169 40.59802636 110.3962981 47 117 C47.64066406 117.680625 48.28132813 118.36125 48.94140625 119.0625 C53.08432638 123.37513012 57.67109787 127.07419516 62.3515625 130.7890625 C65.0682291 133.05695822 67.51060408 135.48693312 70 138 C72.38203191 140.10179286 74.790392 142.16863788 77.20703125 144.23046875 C77.79871094 144.81441406 78.39039063 145.39835938 79 146 C79 146.66 79 147.32 79 148 C79.66 148 80.32 148 81 148 C95.4882938 165.18995005 103.3007383 185.99564338 103.0625 208.5 C103.05798828 209.32242188 103.05347656 210.14484375 103.04882812 210.9921875 C103.03718489 212.99482396 103.01925556 214.99742227 103 217 C100.48326544 214.55695164 98.59939339 212.03054835 96.625 209.125 C84.27926148 192.08788084 67.07410911 180.79860615 50.02368164 168.94091797 C40.42263421 162.24364299 31.58269537 154.95952937 23 147 C22.32195312 146.39929688 21.64390625 145.79859375 20.9453125 145.1796875 C2.59728433 128.15802281 -6.29356078 101.48659681 -8 77 C-8.16041881 72.26998837 -8.18504923 67.54494516 -8.1875 62.8125 C-8.20586914 60.97461914 -8.20586914 60.97461914 -8.22460938 59.09960938 C-8.23810849 50.5636711 -7.39724134 42.41348222 -6 34 C-5.68543948 31.93781325 -5.37264353 29.87535566 -5.0625 27.8125 C-4.70838368 25.54165882 -4.35421013 23.27082655 -4 21 C-3.74722923 19.34377542 -3.49463766 17.68752348 -3.2421875 16.03125 C-2.97411784 14.29164208 -2.70588905 12.55205867 -2.4375 10.8125 C-2.31060791 9.97372314 -2.18371582 9.13494629 -2.05297852 8.27075195 C-1.11346238 2.22692476 -1.11346238 2.22692476 0 0 Z " fill="#8DC343" transform="translate(141,113)"/>
<path d="M0 0 C2.65065808 2.37699132 4.15642229 4.86120808 5.8125 8 C6.3384375 8.98742187 6.864375 9.97484375 7.40625 10.9921875 C8.19515625 12.48105469 8.19515625 12.48105469 9 14 C9.93530769 15.7095346 10.87279894 17.41787641 11.8125 19.125 C12.87545978 21.08308381 13.93790045 23.04144945 15 25 C15.34998047 25.63744141 15.69996094 26.27488281 16.06054688 26.93164062 C21.08735556 36.10019596 25.44489774 45.14387694 29 55 C29.68242946 56.62713591 30.36970118 58.25225201 31.0625 59.875 C40.9232521 84.40662716 41.55980495 114.04845612 31.54223633 138.57324219 C20.65487243 163.48684734 -4.39633381 181.87529362 -28.96875 192.25390625 C-29.6390625 192.50011719 -30.309375 192.74632812 -31 193 C-32.66495719 153.68851068 -14.33260019 119.52263133 11 91 C11.99378696 89.99382532 12.99219897 88.99213764 14 88 C-14.06980425 104.78941563 -31.02582543 133.7967082 -39 165 C-42.81256679 180.68313502 -43.15237855 196.94388889 -44 213 C-58.66562159 191.00156762 -59.26046453 146.6261429 -54.8125 121.625 C-54.28179868 119.05573673 -53.65535576 116.5438503 -53 114 C-52.69449219 112.72253906 -52.38898438 111.44507813 -52.07421875 110.12890625 C-46.63131917 89.29895026 -33.39282965 71.16079837 -19.40844727 55.19140625 C-6.81535271 40.68964847 2.2676188 25.79213902 1 6 C0.58601101 2.48473838 0.58601101 2.48473838 0 0 Z " fill="#C0E654" transform="translate(334,113)"/>
<path d="M0 0 C0.495 0.99 0.495 0.99 1 2 C-15.58113146 15.78206586 -35.66343571 30.07617747 -57 35 C-60 30.375 -60 30.375 -60 27 C-58.74445313 26.68546875 -57.48890625 26.3709375 -56.1953125 26.046875 C-43.32368451 22.83211339 -43.32368451 22.83211339 -31 18 C-30.41686035 17.72816895 -29.8337207 17.45633789 -29.23291016 17.17626953 C-19.93664452 12.80903606 -11.3998787 7.93424266 -3 2 C-2.01 1.34 -1.02 0.68 0 0 Z " fill="#90C548" transform="translate(339,315)"/>
<path d="M0 0 C0.33 0.66 0.66 1.32 1 2 C-1.2668555 3.81767674 -3.53815973 5.62923143 -5.8125 7.4375 C-6.77639648 8.2119043 -6.77639648 8.2119043 -7.75976562 9.00195312 C-8.38173828 9.49501953 -9.00371094 9.98808594 -9.64453125 10.49609375 C-10.21534424 10.95169678 -10.78615723 11.4072998 -11.37426758 11.87670898 C-13 13 -13 13 -16 14 C-14.46642041 9.37766153 -10.71292205 7.3643469 -6.875 4.75 C-6.21628906 4.29109375 -5.55757813 3.8321875 -4.87890625 3.359375 C-3.2579995 2.23178769 -1.62970314 1.11483609 0 0 Z " fill="#9BCA5A" transform="translate(339,315)"/>
<path d="M0 0 C3.94139078 1.66751148 6.7892812 4.22710649 10 7 C6.58678765 7 5.60527115 6.33132534 2.8125 4.5 C2.09707031 4.0359375 1.38164062 3.571875 0.64453125 3.09375 C0.10183594 2.7328125 -0.44085938 2.371875 -1 2 C-0.67 1.34 -0.34 0.68 0 0 Z " fill="#9FCD62" transform="translate(327,71)"/>
<path d="M0 0 C1.50560497 2.85410334 2.63216796 5.68124642 3.625 8.75 C3.88539063 9.54921875 4.14578125 10.3484375 4.4140625 11.171875 C4.60742188 11.77515625 4.80078125 12.3784375 5 13 C4.01 13 3.02 13 2 13 C-0.28571429 4.57142857 -0.28571429 4.57142857 0 0 Z " fill="#E7F2D8" transform="translate(155,167)"/>
<path d="M0 0 C2.74277578 3.19990508 4.6302836 6.00499382 6 10 C4.2925002 8.71937515 2.62626404 7.38232443 1 6 C1 5.34 1 4.68 1 4 C0.34 4 -0.32 4 -1 4 C-0.67 2.68 -0.34 1.36 0 0 Z " fill="#9FCD62" transform="translate(274,346)"/>
</svg>
